<svg xmlns="http://www.w3.org/2000/svg" width="300" height="300" viewBox="0 0 300 300">
  <rect width="300" height="300" fill="#f1f5f9"/>
  <g fill="#cbd5e1">
    <path d="M150 110a18 18 0 100 36 18 18 0 000-36zm0 28a10 10 0 110-20 10 10 0 010 20z"/>
    <path d="M196 96H104a12 12 0 00-12 12v84a12 12 0 0012 12h92a12 12 0 0012-12v-84a12 12 0 00-12-12zm4 96a4 4 0 01-4 4h-92a4 4 0 01-4-4v-14l24-24 18 18 30-30 28 28zm0-29-28-28-30 30-18-18-24 24v-39a4 4 0 014-4h92a4 4 0 014 4z"/>
  </g>
  <text x="150" y="240" font-family="Arial, sans-serif" font-size="14" fill="#94a3b8" text-anchor="middle">Image not available</text>
</svg>
